<svg width="13" height="13" viewBox="0 0 13 13" fill="none" xmlns="http://www.w3.org/2000/svg">
<path fill-rule="evenodd" clip-rule="evenodd" d="M12.7452 9.47043C12.8012 9.02216 12.4147 8.64349 11.9665 8.69991C5.33909 9.53405 3.96651 5.19991 3.96651 0.199909C3.96651 0.079379 3.86881 -0.0219427 3.75113 0.00412471C3.74208 0.00612845 3.73303 0.00826157 3.72398 0.0105254L1.72398 0.510525C1.51995 0.561532 1.42291 0.776153 1.43395 0.986168C1.47758 1.81591 1.49996 2.81237 1.49996 3.99997C1.49996 4.41929 1.34105 5.08866 1.00284 5.90106C0.996023 5.91744 0.994316 5.93572 0.998794 5.95289C0.999984 5.95746 1.00083 5.96212 1.00128 5.96682C1.36682 9.7679 4.56958 12.74 8.46651 12.74C9.65906 12.74 10.7866 12.4616 11.7877 11.9664C12.2402 11.7426 12.5183 11.2855 12.5809 10.7846L12.7452 9.47043Z" fill="#FFC632"/>
</svg>
