<svg width="18" height="18" viewBox="0 0 18 18" fill="none" xmlns="http://www.w3.org/2000/svg">
<path  fill-rule="evenodd" clip-rule="evenodd" d="M14.7452 12.4704C14.8012 12.0222 14.4147 11.6435 13.9665 11.6999C7.33909 12.534 5.96651 8.19991 5.96651 3.19991C5.96651 3.07938 5.86881 2.97806 5.75113 3.00412C5.74208 3.00613 5.73303 3.00826 5.72398 3.01053L3.72398 3.51053C3.51995 3.56153 3.42291 3.77615 3.43395 3.98617C3.47758 4.81591 3.49996 5.81237 3.49996 6.99997C3.49996 7.41929 3.34105 8.08866 3.00284 8.90106C2.99602 8.91744 2.99432 8.93572 2.99879 8.95289C2.99998 8.95746 3.00083 8.96212 3.00128 8.96682C3.36682 12.7679 6.56958 15.74 10.4665 15.74C11.6591 15.74 12.7866 15.4616 13.7877 14.9664C14.2402 14.7426 14.5183 14.2855 14.5809 13.7846L14.7452 12.4704Z" fill="#FFC632"/>
</svg>
