<svg width="22" height="30" viewBox="0 0 22 30" fill="none" xmlns="http://www.w3.org/2000/svg">
<path d="M18.0284 13.8835C19.616 13.0663 20.6083 11.6265 20.3754 9.22959C20.0624 5.95295 17.2613 4.85593 13.7255 4.54462L13.7237 0.584146C13.7246 0.571466 13.7311 0.560535 13.7311 0.547418C13.7311 0.245289 13.4886 0.00087423 13.1895 0.000436995H11.5387C11.3952 0.000552896 11.2577 0.0581859 11.1563 0.16067C11.0549 0.263154 10.9979 0.402104 10.9979 0.546981H10.9854L10.9876 4.42613C10.2671 4.42613 9.53115 4.44056 8.80035 4.45586L8.79905 0.595076C8.80035 0.578461 8.80857 0.564033 8.80857 0.546981C8.80857 0.244852 8.56612 0.000437235 8.26696 0H6.61617C6.47272 0.000115901 6.33518 0.057749 6.23378 0.160233C6.13239 0.262717 6.07543 0.401667 6.07543 0.546543L6.07586 0.547855H6.06244L6.06331 4.54549C5.47018 4.55774 4.88788 4.57042 4.31986 4.57042L4.31943 4.55599H0.541607V4.56167C0.470466 4.56161 0.400012 4.57572 0.334276 4.60319C0.268539 4.63066 0.208811 4.67095 0.158507 4.72175C0.108202 4.77255 0.0683098 4.83288 0.0411117 4.89926C0.0139136 4.96565 -5.67621e-05 5.03681 1.73328e-07 5.10865V6.95641C1.73328e-07 7.25854 0.242446 7.50339 0.541607 7.50339L0.543771 7.50295V7.51126C0.543771 7.51126 2.56646 7.47147 2.53269 7.50776C3.64188 7.5082 4.00338 8.15837 4.10859 8.71934L4.11075 13.8975L4.11119 13.9172L4.11335 21.1696C4.06486 21.522 3.85965 22.0847 3.08469 22.086C3.11976 22.1171 1.0936 22.0856 1.0936 22.0856L1.09317 22.0882C1.08971 22.0882 1.08711 22.086 1.08365 22.086C0.82345 22.086 0.616506 22.2749 0.56412 22.522L0.54204 22.5207L0.0432942 24.7807L0.0549837 24.7829C0.052819 24.803 0.0432942 24.8205 0.0432942 24.8415C0.0432942 25.1318 0.269288 25.364 0.55243 25.3819L0.551131 25.3902L4.11552 25.3889C4.77878 25.3889 5.43165 25.3999 6.0724 25.4038L6.07543 29.4535H6.07673C6.07673 29.7551 6.31917 30 6.61833 30H8.26913C8.41262 29.9998 8.55016 29.942 8.65154 29.8395C8.75293 29.7369 8.80987 29.5979 8.80987 29.453H8.81074L8.809 25.4528C9.56015 25.4681 10.2871 25.4737 10.9971 25.472L10.9979 29.4535H10.9992C10.9997 29.7551 11.2417 30 11.5404 30H13.1912C13.3347 29.9998 13.4722 29.942 13.5736 29.8395C13.675 29.7369 13.732 29.5979 13.732 29.453V29.4526H13.7354L13.7345 25.4095C18.3389 25.1406 21.5616 23.9679 21.96 19.6004C22.2812 16.0846 20.6425 14.5158 18.0284 13.8835ZM8.86529 7.70758C10.4113 7.7067 15.268 7.20825 15.2698 10.4674C15.2702 13.5928 10.413 13.2299 8.86702 13.2307L8.86529 7.70758ZM8.87005 22.1079L8.86875 16.0177C10.7252 16.0177 16.5461 15.4764 16.5474 19.0586C16.5499 22.4935 10.7265 22.1048 8.87005 22.1079Z" fill="white"/>
</svg>
