<svg width="18" height="18" viewBox="0 0 18 18" fill="none" xmlns="http://www.w3.org/2000/svg">
<g clip-path="url(#clip0)">
<path d="M15.2377 3.36898C14.0902 2.85148 12.8602 2.46898 11.574 2.25148C11.5625 2.24928 11.5507 2.2507 11.5401 2.25554C11.5295 2.26037 11.5206 2.26839 11.5147 2.27848C11.3572 2.55523 11.1817 2.91598 11.0587 3.20098C9.69457 2.99716 8.30767 2.99716 6.94349 3.20098C6.8065 2.88513 6.65201 2.57715 6.48074 2.27848C6.47494 2.26827 6.46616 2.26007 6.45557 2.25498C6.44498 2.24988 6.4331 2.24814 6.42149 2.24998C5.13599 2.46748 3.90599 2.84998 2.75774 3.36823C2.74787 3.37237 2.73949 3.37944 2.73374 3.38848C0.399744 6.81973 -0.240006 10.1662 0.0742443 13.4707C0.0751187 13.4788 0.0776309 13.4867 0.081628 13.4937C0.085625 13.5008 0.0910233 13.507 0.0974943 13.512C1.45979 14.5038 2.97925 15.2593 4.59224 15.747C4.60349 15.7504 4.61552 15.7504 4.62675 15.747C4.63799 15.7435 4.64792 15.7367 4.65524 15.7275C5.00174 15.2625 5.31074 14.7712 5.57474 14.2552C5.59049 14.2252 5.57549 14.1892 5.54399 14.1772C5.0595 13.9948 4.59006 13.7746 4.13999 13.5187C4.13191 13.5141 4.12509 13.5076 4.12016 13.4997C4.11523 13.4918 4.11234 13.4828 4.11174 13.4735C4.11115 13.4642 4.11287 13.4549 4.11675 13.4464C4.12064 13.438 4.12656 13.4306 4.13399 13.425C4.22849 13.3552 4.32299 13.2825 4.41299 13.2097C4.4211 13.2032 4.43085 13.199 4.44118 13.1977C4.45151 13.1964 4.462 13.1979 4.47149 13.2022C7.41674 14.5252 10.6065 14.5252 13.5172 13.2022C13.5268 13.1977 13.5374 13.1959 13.5478 13.1971C13.5583 13.1983 13.5682 13.2024 13.5765 13.209C13.6665 13.2825 13.7602 13.3552 13.8555 13.425C13.863 13.4305 13.869 13.4377 13.873 13.4461C13.877 13.4545 13.8789 13.4638 13.8785 13.4731C13.878 13.4824 13.8753 13.4914 13.8705 13.4994C13.8657 13.5073 13.859 13.514 13.851 13.5187C13.4025 13.7767 12.936 13.995 12.4462 14.1765C12.4387 14.1792 12.4319 14.1835 12.4261 14.1891C12.4204 14.1947 12.416 14.2014 12.413 14.2089C12.4101 14.2163 12.4088 14.2243 12.4093 14.2323C12.4097 14.2403 12.4118 14.2481 12.4155 14.2552C12.6855 14.7705 12.9945 15.261 13.3342 15.7267C13.3413 15.7363 13.3511 15.7434 13.3624 15.7472C13.3737 15.7509 13.3859 15.7511 13.3972 15.7477C15.013 15.2615 16.5349 14.5056 17.8987 13.512C17.9054 13.5073 17.911 13.5013 17.9151 13.4943C17.9193 13.4873 17.9219 13.4796 17.9227 13.4715C18.2977 9.65098 17.2942 6.33148 15.261 3.38998C15.256 3.38042 15.2478 3.37297 15.2377 3.36898ZM6.01499 11.4585C5.12849 11.4585 4.39724 10.6567 4.39724 9.67348C4.39724 8.68948 5.11424 7.88848 6.01499 7.88848C6.92249 7.88848 7.64699 8.69623 7.63274 9.67348C7.63274 10.6575 6.91574 11.4585 6.01499 11.4585ZM11.9962 11.4585C11.109 11.4585 10.3785 10.6567 10.3785 9.67348C10.3785 8.68948 11.0947 7.88848 11.9962 7.88848C12.9037 7.88848 13.6282 8.69623 13.614 9.67348C13.614 10.6575 12.9045 11.4585 11.9962 11.4585Z" fill="#3D3E42"/>
</g>
<defs>
<clipPath id="clip0">
<rect width="18" height="18" fill="white"/>
</clipPath>
</defs>
</svg>
