<svg width="18" height="18" viewBox="0 0 18 18" fill="none" xmlns="http://www.w3.org/2000/svg">
<path fill-rule="evenodd" clip-rule="evenodd" d="M3.08998 10.0352C3.34893 11.5145 4.16011 12.8989 5.47046 13.8521L4.29394 15.4694C3.74434 15.0696 3.25206 14.6045 2.82603 14.0875C2.05802 13.1554 1.50528 12.0545 1.21996 10.863C0.776371 9.01059 1.00832 7.06065 1.87408 5.36394C2.73985 3.66724 4.18261 2.33512 5.94287 1.60721C7.07506 1.13901 8.29081 0.940539 9.4962 1.01543C10.1649 1.05697 10.8303 1.18263 11.4766 1.39303L10.858 3.29324C9.98292 3.00816 9.0641 2.93328 8.17363 3.05721C8.09104 3.06869 8.00864 3.0819 7.9265 3.09684C6.4872 3.35836 5.14068 4.14343 4.19777 5.403C4.16299 5.44943 4.12886 5.4964 4.09539 5.5439C3.19986 6.81395 2.86617 8.31576 3.04701 9.74967C3.05902 9.84503 3.07334 9.94024 3.08998 10.0352Z" fill="white"/>
</svg>
