<svg width="72" height="21" viewBox="0 0 72 21" fill="none" xmlns="http://www.w3.org/2000/svg">
<path d="M36.6153 5.80202C37.0822 6.71007 37.3157 7.77378 37.3157 8.99315C37.3157 10.1866 37.0822 11.2243 36.6153 12.1324C36.1483 13.0404 35.4997 13.7409 34.6435 14.2339C33.7873 14.7268 32.8534 14.9862 31.7896 14.9862C30.9335 14.9862 30.1811 14.8306 29.5325 14.5192C28.8839 14.2079 28.391 13.7669 28.0018 13.222V19.4227H25.5371V3.15572H27.6905L27.9759 4.89398C28.9098 3.64866 30.1811 3.026 31.7896 3.026C32.8534 3.026 33.8133 3.2595 34.6435 3.75244C35.4997 4.19349 36.1483 4.89398 36.6153 5.80202ZM34.8251 8.99315C34.8251 7.82566 34.5138 6.89167 33.8652 6.19118C33.2425 5.46475 32.4123 5.12748 31.4005 5.12748C30.3887 5.12748 29.5584 5.49069 28.9358 6.19118C28.3131 6.89167 28.0018 7.82566 28.0018 8.9672C28.0018 10.1347 28.3131 11.0946 28.9358 11.8211C29.5584 12.5475 30.3887 12.9107 31.4005 12.9107C32.4123 12.9107 33.2425 12.5475 33.8652 11.8211C34.5138 11.0687 34.8251 10.1347 34.8251 8.99315Z" fill="white"/>
<path d="M41.6217 3.75238C42.4778 3.25944 43.4637 3 44.5793 3C45.6949 3 46.7067 3.2335 47.5629 3.67455C48.419 4.14154 49.0936 4.79014 49.5865 5.62036C50.0794 6.45057 50.3389 7.43644 50.3389 8.57798C50.3389 8.88931 50.3129 9.20064 50.2611 9.51197H41.44V9.6417C41.4919 10.6535 41.8292 11.4578 42.4 12.0545C42.9708 12.6512 43.7491 12.9366 44.709 12.9366C45.4614 12.9366 46.11 12.755 46.6289 12.3918C47.1478 12.0286 47.485 11.5356 47.6666 10.8611H50.1313C49.9238 12.0545 49.353 13.0144 48.419 13.7928C47.485 14.5451 46.3175 14.9343 44.9166 14.9343C43.6972 14.9343 42.6335 14.6749 41.7254 14.1819C40.8174 13.689 40.1169 12.9885 39.624 12.0804C39.131 11.1724 38.8716 10.1346 38.8716 8.9412C38.8716 7.74778 39.1051 6.68407 39.598 5.77602C40.091 4.94581 40.7655 4.24532 41.6217 3.75238ZM46.8105 5.69819C46.2397 5.23119 45.5133 4.97175 44.6571 4.97175C43.8529 4.97175 43.1524 5.23119 42.5556 5.72413C41.9589 6.21707 41.6217 6.86567 41.5438 7.69589H47.8223C47.7185 6.86567 47.3813 6.19113 46.8105 5.69819Z" fill="white"/>
<path d="M54.6211 3.75238C55.4773 3.25944 56.4631 3 57.5787 3C58.6943 3 59.7062 3.2335 60.5623 3.67455C61.4185 4.14154 62.093 4.79014 62.586 5.62036C63.0789 6.45057 63.3383 7.43644 63.3383 8.57798C63.3383 8.88931 63.3124 9.20064 63.2605 9.51197H54.4395V9.6417C54.4914 10.6535 54.8287 11.4578 55.3994 12.0545C55.9702 12.6512 56.7485 12.9366 57.7085 12.9366C58.4608 12.9366 59.1094 12.755 59.6283 12.3918C60.1472 12.0286 60.4845 11.5356 60.6661 10.8611H63.1308C62.9232 12.0545 62.3525 13.0144 61.4185 13.7928C60.4845 14.5451 59.317 14.9343 57.916 14.9343C56.6966 14.9343 55.6329 14.6749 54.7249 14.1819C53.8168 13.689 53.1163 12.9885 52.6234 12.0804C52.1305 11.1724 51.871 10.1346 51.871 8.9412C51.871 7.74778 52.1045 6.68407 52.5975 5.77602C53.0904 4.94581 53.765 4.24532 54.6211 3.75238ZM59.8359 5.69819C59.2651 5.23119 58.5387 4.97175 57.6825 4.97175C56.8782 4.97175 56.1778 5.23119 55.581 5.72413C54.9843 6.21707 54.6471 6.86567 54.5692 7.69589H60.8477C60.7439 6.86567 60.4066 6.19113 59.8359 5.69819Z" fill="white"/>
<path d="M71.7957 5.43879H70.7061C69.6942 5.43879 68.9419 5.77606 68.5008 6.42467C68.0338 7.09921 67.8263 7.92942 67.8263 8.94125V14.8306H65.3356V3.12976H67.5149L67.8003 4.89396C68.1376 4.34913 68.5786 3.90808 69.0975 3.59675C69.6424 3.28542 70.3428 3.12976 71.2509 3.12976H71.7957V5.43879Z" fill="white"/>
<path fill-rule="evenodd" clip-rule="evenodd" d="M14.2483 5.1737H11.6698C10.959 5.1737 10.3805 4.59517 10.3805 3.88441V1.28929C10.3805 0.57853 9.80194 0 9.09117 0H6.47953L5.1737 1.28929V3.86788C5.1737 4.57865 4.59517 5.15717 3.88441 5.15717H1.28929C0.578529 5.15717 0 5.7357 0 6.44647V9.05811C0 9.76888 0.578529 10.3474 1.28929 10.3474H3.88441C4.59517 10.3474 5.1737 10.9259 5.1737 11.6367V14.2153C5.1737 14.9261 4.59517 15.5046 3.88441 15.5046H1.28929C0.578529 15.5046 0 16.0831 0 16.7939V19.5335C0 20.2442 0.578529 20.8228 1.28929 20.8228H3.90094C4.6117 20.8228 5.19023 20.2442 5.19023 19.5335V16.8104C5.19023 16.0996 5.76876 15.5211 6.47953 15.5211H9.07464C9.78541 15.5211 10.3639 14.9426 10.3639 14.2318V11.6367C10.3639 10.9259 10.9425 10.3474 11.6532 10.3474H14.2483C14.9591 10.3474 15.5376 9.76888 15.5376 9.05811V6.463C15.5542 5.75223 14.9756 5.1737 14.2483 5.1737ZM9.07464 10.3474C9.78541 10.3474 10.3639 9.76888 10.3639 9.05811H10.3474V6.47953C10.3474 5.76876 9.76888 5.19023 9.05811 5.19023H6.47953C5.76876 5.19023 5.19023 5.76876 5.19023 6.47953V9.05811C5.19023 9.76888 5.76876 10.3474 6.47953 10.3474H9.07464Z" fill="white"/>
</svg>
