<svg
    xmlns="http://www.w3.org/2000/svg"
    xmlns:xlink="http://www.w3.org/1999/xlink"
    version="1.1"
    x="18px"
    y="18px"
    viewBox="0 0 100 125"
    style="fill: #3d3e42"
    xml:space="preserve"
>
    <path
        d="M41,85.8c-0.2,0.8-0.3,1.5-0.3,2.4c0,5.1,4.2,9.3,9.3,9.3s9.3-4.2,9.3-9.3c0-0.8-0.1-1.6-0.3-2.4H41z"
    />
    <path
        d="M87.8,75.5c-0.1-0.8-0.4-1.5-0.9-2.1c-0.1-0.1-8.1-8.8-8.1-31.8c0-17.9-12-25.4-21.9-27.7V8.7  c0-3.7-3.1-6.8-6.8-6.8S43.2,5,43.2,8.7V14c-9.9,2.3-21.9,9.7-21.9,27.7c0,23-8,31.7-8.1,31.7c-0.6,0.6-0.9,1.3-1,2.1h0v6.3h75.6  L87.8,75.5L87.8,75.5z"
    />
</svg>
