<svg width="26" height="29" viewBox="0 0 26 29" fill="none" xmlns="http://www.w3.org/2000/svg">
<path d="M25.8618 10.4566C26.0678 11.3628 26.0422 12.462 25.7937 13.7576C24.8028 18.5506 21.5765 20.9454 16.1181 20.9454H15.3656C15.0875 20.9438 14.8185 21.0389 14.6097 21.2126C14.3933 21.3897 14.2494 21.6329 14.2028 21.8998L14.133 22.204L13.1915 27.8033L13.1557 28.0463C13.1071 28.3152 12.9579 28.5585 12.7352 28.732C12.5251 28.9067 12.254 29.0019 11.9742 28.9991H7.67865C7.57113 29.0045 7.46383 28.9853 7.36576 28.9433C7.2677 28.9013 7.18174 28.8377 7.11511 28.7577C7.04743 28.676 6.99879 28.5818 6.97238 28.4811C6.94597 28.3804 6.94239 28.2756 6.96188 28.1735C7.06573 27.5732 7.21385 26.6638 7.41646 25.4551C7.61565 24.248 7.76718 23.3403 7.87103 22.7368C7.97489 22.1332 8.12641 21.2271 8.33412 20.0248C8.54013 18.821 8.69506 17.9164 8.79551 17.3129C8.8517 16.9138 9.10027 16.7158 9.53271 16.7158H11.7733C13.2936 16.7367 14.6369 16.6241 15.8168 16.3762C17.8122 15.9545 19.45 15.1788 20.7303 14.0441C21.8966 13.0189 22.7785 11.6911 23.3863 10.0639C23.6621 9.3075 23.8579 8.58808 23.9856 7.9105C23.9958 7.84451 24.0094 7.80427 24.0281 7.7914C24.0418 7.77369 24.0656 7.76887 24.0877 7.77369C24.1247 7.78929 24.1601 7.80815 24.1933 7.83002C25.0854 8.47058 25.6473 9.34452 25.8618 10.4566ZM22.9198 5.89225C22.9198 7.04622 22.6576 8.3193 22.1281 9.71308C21.2138 12.227 19.4943 13.9266 16.9575 14.8118C15.667 15.2448 14.23 15.4685 12.6416 15.4958C12.6416 15.5055 12.1291 15.5071 11.1025 15.5071L9.56506 15.4958C8.42095 15.4958 7.74845 16.0109 7.54415 17.0473C7.52201 17.1326 7.03679 19.9926 6.08847 25.6241C6.07485 25.7303 6.00675 25.7883 5.88247 25.7883H0.834434C0.715466 25.7906 0.597424 25.768 0.488796 25.7221C0.380168 25.6762 0.283654 25.6081 0.206196 25.5227C0.125827 25.4387 0.0664968 25.3386 0.0326033 25.23C-0.00129025 25.1213 -0.008878 25.0068 0.0104037 24.895L3.98073 1.08321C4.03158 0.778501 4.19874 0.501957 4.45063 0.305845C4.69622 0.106025 5.01023 -0.00264731 5.33425 4.89952e-05H15.5733C15.9615 4.89952e-05 16.5182 0.0708649 17.2401 0.210887C17.9688 0.346081 18.6038 0.523121 19.1521 0.727521C20.3745 1.16851 21.3075 1.83482 21.9527 2.71841C22.598 3.60683 22.9198 4.66102 22.9198 5.89225Z" fill="white"/>
</svg>
