<svg width="18" height="18" viewBox="0 0 18 18" fill="none" xmlns="http://www.w3.org/2000/svg">
<path fill-rule="evenodd" clip-rule="evenodd" d="M13.5 9H4.5L4.5 14H13.5V9ZM4.5 7C3.39543 7 2.5 7.89543 2.5 9V14C2.5 15.1046 3.39543 16 4.5 16H13.5C14.6046 16 15.5 15.1046 15.5 14V9C15.5 7.89543 14.6046 7 13.5 7H4.5Z" fill="white"/>
<path fill-rule="evenodd" clip-rule="evenodd" d="M9 2C6.51472 2 4.5 4.01472 4.5 6.5V7.5C4.5 7.669 4.50932 7.83583 4.52746 8H6.55001C6.51722 7.83845 6.5 7.67123 6.5 7.5V6.5C6.5 5.11929 7.61929 4 9 4C10.3807 4 11.5 5.11929 11.5 6.5V7.5C11.5 7.67123 11.4828 7.83845 11.45 8H13.4725C13.4907 7.83583 13.5 7.669 13.5 7.5V6.5C13.5 4.01472 11.4853 2 9 2Z" fill="white"/>
</svg>
