<svg width="29" height="30" viewBox="0 0 29 30" fill="none" xmlns="http://www.w3.org/2000/svg">
<path d="M13.3308 0C5.96909 0 0 5.97257 0 13.3414C0 20.7102 5.96909 26.6828 13.3321 26.6828C15.2893 26.6828 17.2266 26.3165 20.0743 26.2953C22.6136 26.2953 25.4039 27.1878 28.4653 29.9028C28.775 30.1741 29.1822 29.8253 28.9112 29.4953C25.9073 25.6753 23.1157 24.9578 20.3266 24.3378C16.9168 23.5803 15.1732 21.6802 13.9516 19.5665C13.7193 19.1402 13.6019 19.2177 13.5831 19.7615C13.5607 20.5602 13.6206 21.359 13.758 22.1465H13.3508C11.0127 22.1445 8.77096 21.2141 7.11767 19.5595C5.46438 17.9049 4.5347 15.6613 4.53271 13.3214C4.53536 10.982 5.46538 8.73922 7.11863 7.08536C8.77188 5.4315 11.0133 4.5017 13.3508 4.50005C14.5951 4.5007 15.8252 4.76474 16.9603 5.27483C18.0954 5.78492 19.1099 6.52952 19.9371 7.45975C20.7643 8.38998 21.3856 9.48479 21.7601 10.6723C22.1347 11.8598 22.254 13.1132 22.1102 14.3502C21.4508 14.2339 20.1905 14.2152 19.2999 14.2927C18.9702 14.3314 19.0089 14.4864 19.2612 14.5264C22.1677 15.0689 24.1636 16.8727 24.6283 20.1502C24.647 20.2277 24.7444 20.2465 24.7832 20.1877C26.0121 18.1162 26.6614 15.7518 26.6629 13.3426C26.6629 5.97257 20.6951 0 13.3308 0ZM22.8784 18.8465C22.8025 18.8381 22.7258 18.8522 22.6578 18.8871C22.5899 18.922 22.5337 18.9761 22.4962 19.0427C22.3413 19.3152 22.4587 19.8377 22.7485 20.304C23.0383 20.769 23.3106 21.0015 23.5054 21.0015C23.699 21.0015 23.8726 20.769 23.7952 20.1677C23.7577 19.8377 23.5629 19.0827 23.0582 18.8877C22.9995 18.8615 22.9321 18.859 22.8784 18.8465ZM20.113 21.0802C19.842 21.0802 19.6284 21.1752 19.4923 21.3502C19.1438 21.7765 19.2987 22.5527 19.842 23.019C20.0743 23.2315 20.4241 23.3478 20.7538 23.3478C20.9034 23.3517 21.052 23.3225 21.1891 23.2625C21.3261 23.2024 21.4483 23.1129 21.5469 23.0003C21.8579 22.5727 21.6843 21.9902 21.0823 21.4865C20.7725 21.2152 20.4241 21.0802 20.113 21.0802Z" fill="white"/>
</svg>
