<svg width="18" height="18" viewBox="0 0 18 18" fill="none" xmlns="http://www.w3.org/2000/svg">
<path fill-rule="evenodd" clip-rule="evenodd" d="M14 8.5C14 11.5376 11.5376 14 8.5 14C5.46243 14 3 11.5376 3 8.5C3 5.46243 5.46243 3 8.5 3C11.5376 3 14 5.46243 14 8.5ZM13.0513 14.4617C11.7891 15.4267 10.2115 16 8.5 16C4.35786 16 1 12.6421 1 8.5C1 4.35786 4.35786 1 8.5 1C12.6421 1 16 4.35786 16 8.5C16 10.2096 15.428 11.7855 14.465 13.047L16.7073 15.2903L17.4142 15.9975L15.9997 17.4114L15.2927 16.7042L13.0513 14.4617Z" fill="white"/>
</svg>
