<svg width="18" height="18" viewBox="0 0 18 18" fill="none" xmlns="http://www.w3.org/2000/svg">
<path fill-rule="evenodd" clip-rule="evenodd" d="M6.70891 4.54886L4.10004 4.14277C3.6265 4.60435 3.21792 5.13225 2.88933 5.71149L3.85177 8.0567L2 9.71197C2.05373 10.4164 2.21141 11.0918 2.45774 11.7228L4.87147 12.4309L5.04493 14.9719C5.59038 15.3444 6.19106 15.6421 6.83218 15.85L9.00016 14.3776L11.168 15.8499C11.8092 15.642 12.4099 15.3442 12.9554 14.9716L13.1289 12.4309L15.5421 11.7229C15.7885 11.0918 15.9463 10.4163 16 9.71165L14.1486 8.0567L15.1108 5.71188C14.7822 5.13251 14.3736 4.60449 13.9 4.14282L11.2914 4.54886L9.93912 2.2123C9.63191 2.17123 9.31842 2.15002 8.99997 2.15002C8.68166 2.15002 8.36831 2.17121 8.06123 2.21224L6.70891 4.54886ZM8.99997 12.2908C10.7232 12.2908 12.1202 10.8938 12.1202 9.17056C12.1202 7.4473 10.7232 6.05032 8.99997 6.05032C7.27671 6.05032 5.87973 7.4473 5.87973 9.17056C5.87973 10.8938 7.27671 12.2908 8.99997 12.2908Z" fill="white"/>
</svg>
