<svg width="15" height="14" viewBox="0 0 15 14" fill="none" xmlns="http://www.w3.org/2000/svg">
<path d="M12.6967 4.34091C12.6967 4.90993 12.5 5.39689 12.1066 5.80177C11.7131 6.20665 11.2322 6.40909 10.6639 6.40909C10.0956 6.40909 9.60929 6.20665 9.20492 5.80177C8.80055 5.39689 8.59836 4.90993 8.59836 4.34091C8.59836 3.77189 8.80055 3.28493 9.20492 2.88005C9.60929 2.47517 10.0956 2.27273 10.6639 2.27273C11.2322 2.27273 11.7131 2.47517 12.1066 2.88005C12.5 3.28493 12.6967 3.77189 12.6967 4.34091ZM0.5 10.9066V7.29545L2.63115 8.14899C3.06831 7.88636 3.56011 7.75505 4.10656 7.75505H4.40164L6.79508 4.30808C6.79508 3.25758 7.17213 2.36027 7.92623 1.61616C8.68033 0.872054 9.58197 0.5 10.6311 0.5C11.7022 0.5 12.6148 0.877525 13.3689 1.63258C14.1229 2.38763 14.5 3.29588 14.5 4.35732C14.5 5.41877 14.1229 6.32702 13.3689 7.08207C12.6148 7.83712 11.7022 8.21465 10.6311 8.21465L6.95902 10.9066C6.89344 11.6507 6.58743 12.2689 6.04098 12.7614C5.49454 13.2538 4.84973 13.5 4.10656 13.5C3.4071 13.5 2.79508 13.2866 2.27049 12.8598C1.7459 12.4331 1.41803 11.8914 1.28689 11.2348L0.5 10.9066ZM10.6475 1.74747C9.93716 1.74747 9.3306 2.00463 8.82787 2.51894C8.32514 3.03325 8.07377 3.64604 8.07377 4.35732C8.07377 5.0686 8.32514 5.67593 8.82787 6.17929C9.3306 6.68266 9.93716 6.93434 10.6475 6.93434C11.3579 6.93434 11.9645 6.68266 12.4672 6.17929C12.9699 5.67593 13.2213 5.0686 13.2213 4.35732C13.2213 3.64604 12.9699 3.03325 12.4672 2.51894C11.9645 2.00463 11.3579 1.74747 10.6475 1.74747ZM4.10656 8.5101C3.95355 8.5101 3.80055 8.53199 3.64754 8.57576L4.53279 8.90404C4.94809 9.07912 5.24863 9.38005 5.43443 9.80682C5.62022 10.2336 5.62568 10.6658 5.45082 11.1035C5.27596 11.5412 4.97541 11.8476 4.54918 12.0227C4.12295 12.1978 3.69126 12.2088 3.2541 12.0556C3.12295 11.9899 2.94262 11.9078 2.71311 11.8093C2.48361 11.7109 2.32514 11.6507 2.2377 11.6288C2.63115 12.3729 3.2541 12.7449 4.10656 12.7449C4.67486 12.7449 5.16667 12.537 5.58197 12.1212C5.99727 11.7054 6.20492 11.2075 6.20492 10.6275C6.20492 10.0476 5.99727 9.54966 5.58197 9.13384C5.16667 8.71801 4.67486 8.5101 4.10656 8.5101Z" fill="#FFC632"/>
</svg>
