<svg width="18" height="18" viewBox="0 0 18 18" fill="none" xmlns="http://www.w3.org/2000/svg">
<path d="M17.7323 3.70281C17.106 3.98031 16.4333 4.16781 15.726 4.25256C16.4558 3.8159 17.0017 3.12866 17.262 2.31906C16.5764 2.7263 15.826 3.01295 15.0435 3.16656C14.5173 2.60471 13.8203 2.2323 13.0608 2.10716C12.3012 1.98202 11.5216 2.11115 10.8429 2.4745C10.1643 2.83784 9.62459 3.41508 9.30762 4.11659C8.99066 4.81809 8.91416 5.60462 9.09001 6.35406C7.70077 6.2843 6.34173 5.92322 5.10108 5.29424C3.86042 4.66525 2.76589 3.78243 1.88851 2.70306C1.58851 3.22056 1.41601 3.82056 1.41601 4.45956C1.41567 5.0348 1.55733 5.60124 1.82842 6.10861C2.0995 6.61597 2.49163 7.04859 2.97001 7.36806C2.41522 7.3504 1.87266 7.2005 1.38751 6.93081V6.97581C1.38745 7.78261 1.66653 8.56459 2.1774 9.18905C2.68826 9.81352 3.39944 10.242 4.19026 10.4018C3.6756 10.5411 3.13601 10.5616 2.61226 10.4618C2.83538 11.156 3.27001 11.7631 3.85528 12.198C4.44056 12.6329 5.1472 12.8739 5.87626 12.8873C4.63863 13.8589 3.11017 14.3859 1.53676 14.3836C1.25804 14.3836 0.979566 14.3674 0.702759 14.3348C2.29987 15.3617 4.15901 15.9067 6.05776 15.9046C12.4853 15.9046 15.999 10.5811 15.999 5.96406C15.999 5.81406 15.9953 5.66256 15.9885 5.51256C16.672 5.01829 17.2619 4.40623 17.7308 3.70506L17.7323 3.70281Z" fill="#3D3E42"/>
</svg>
